<?xml version="1.0" ?><!-- Uploaded to: SVG Repo, www.svgrepo.com, Generator: SVG Repo Mixer Tools -->
<svg width="800px" height="800px" viewBox="0 0 24 24" fill="none" xmlns="http://www.w3.org/2000/svg"><path clip-rule="evenodd" d="M17 11C17 9.89543 17.8954 9 19 9H21V4H16.8569C16.4834 5.6291 15.4009 7.03561 13.8672 7.80248L12.8944 8.28885C12.3314 8.57038 11.6686 8.57038 11.1056 8.28885L10.1328 7.80248C8.59908 7.03561 7.51661 5.6291 7.14314 4H3V9H5C6.10457 9 7 9.89543 7 11V20H17V11ZM12 6.5L11.0272 6.01362C9.78482 5.39241 9 4.12255 9 2.73347C9 2.32838 8.67162 2 8.26653 2H3C1.89543 2 1 2.89543 1 4V10C1 10.5523 1.44772 11 2 11H5V20C5 21.1046 5.89543 22 7 22H17C18.1046 22 19 21.1046 19 20V11H22C22.5523 11 23 10.5523 23 10V4C23 2.89543 22.1046 2 21 2H15.7335C15.3284 2 15 2.32838 15 2.73347C15 4.12255 14.2152 5.39241 12.9728 6.01362L12 6.5Z" fill="#000000" fill-rule="evenodd"/></svg>