<?xml version="1.0" ?>
<!-- Uploaded to: SVG Repo, www.svgrepo.com, Generator: SVG Repo Mixer Tools -->
<svg fill="#000000" width="800px" height="800px" viewBox="0 0 64 64" xmlns="http://www.w3.org/2000/svg">
<g data-name="30 ecommerce" id="_30_ecommerce">
<path d="M34.218,54.6H30.052a1,1,0,0,0,0,2h4.166a1,1,0,0,0,0-2Z"/>
<path d="M53.08,15.01a.974.974,0,0,0-.06-.34.59.59,0,0,1-.04-.08c-.02-.04-.03-.07-.05-.11L46.52,4.41a1.946,1.946,0,0,0-1.65-.91H19.13a1.946,1.946,0,0,0-1.65.91L11.07,14.48c-.02.04-.03.07-.05.11a.59.59,0,0,1-.04.08.974.974,0,0,0-.06.34l-.01.01v4.61a4.993,4.993,0,0,0,3.53,4.75V54.72a5.791,5.791,0,0,0,5.79,5.78H43.77a5.791,5.791,0,0,0,5.79-5.78V24.38a4.993,4.993,0,0,0,3.53-4.75V15.02ZM44.83,5.48l5.43,8.54H44.72L41.15,5.48Zm-5.85,0,3.57,8.54H36.91l-.93-8.53Zm4.07,10.54v3.61a3,3,0,0,1-3,3h-.03a3,3,0,0,1-3-3V16.02ZM30.03,5.49h3.94l.93,8.53H29.1ZM28.98,16.02h6.04v3.61a3,3,0,0,1-3,3h-.04a3,3,0,0,1-3-3ZM28.02,5.49l-.93,8.53H21.45L25.02,5.5ZM26.98,16.02v3.61a3,3,0,0,1-3,3h-.03a3,3,0,0,1-3-3V16.02ZM19.13,5.5h3.72l-3.57,8.52H13.73ZM15.95,22.63h-.04a3,3,0,0,1-3-3V16.02h6.04v3.61A3,3,0,0,1,15.95,22.63ZM47.56,54.72a3.792,3.792,0,0,1-3.79,3.78H20.23a3.792,3.792,0,0,1-3.79-3.78V52.71H47.56Zm0-4.01H16.44V24.58a4.959,4.959,0,0,0,3.51-1.98,4.966,4.966,0,0,0,4,2.03h.03a4.966,4.966,0,0,0,4-2.03,4.966,4.966,0,0,0,4,2.03h.04a4.966,4.966,0,0,0,4-2.03,4.966,4.966,0,0,0,4,2.03h.03a4.966,4.966,0,0,0,4-2.03,4.959,4.959,0,0,0,3.51,1.98Zm3.53-31.08a3,3,0,0,1-3,3h-.04a3,3,0,0,1-3-3V16.02h6.04Z"/>
<path d="M42.25,44.06,36.9,38.71a8.417,8.417,0,1,0-3.73,3.73l5.35,5.35a2.638,2.638,0,0,0,3.73-3.73ZM29.39,41.34a6.415,6.415,0,1,1,4.53-1.88A6.376,6.376,0,0,1,29.39,41.34Zm11.45,5.03a.643.643,0,0,1-.9.01L34.86,41.3a4.907,4.907,0,0,0,.48-.43,6.142,6.142,0,0,0,.42-.47l5.08,5.07A.634.634,0,0,1,40.84,46.37Z"/>
</g>
</svg>